<svg width="175" height="100" viewBox="0 0 175 100" fill="none" xmlns="http://www.w3.org/2000/svg">
   <path d="M50 100C77.6142 100 100 77.6142 100 50C100 22.3858 77.6142 0 50 0C22.3858 0 0 22.3858 0 50C0 77.6142 22.3858 100 50 100Z" fill="#F2F2F2"/>
   <mask id="mask0_604_40" style="mask-type:luminance" maskUnits="userSpaceOnUse" x="15" y="19" width="50" height="61">
   <path d="M65 47.1574L48.6059 63.5516L65 79.9496H46.2633L39.2356 72.9219L29.8652 63.5516L46.2633 47.1574H65ZM46.2633 19.0504L15.8098 49.5L25.1801 58.8703L65 19.0504H46.2633Z" fill="white"/>
   </mask>
   <g mask="url(#mask0_604_40)">
   <path d="M65 47.1574H46.2633L29.8652 63.5555L39.2356 72.9219L65 47.1574Z" fill="#39CEFD"/>
   </g>
   <mask id="mask1_604_40" style="mask-type:luminance" maskUnits="userSpaceOnUse" x="15" y="19" width="50" height="61">
   <path d="M65 47.1574L48.6059 63.5516L65 79.9496H46.2633L39.2356 72.9219L29.8652 63.5516L46.2633 47.1574H65ZM46.2633 19.0504L15.8098 49.5L25.1801 58.8703L65 19.0504H46.2633Z" fill="white"/>
   </mask>
   <g mask="url(#mask1_604_40)">
   <path d="M25.1801 58.8703L15.8098 49.5L46.2633 19.0504H65L25.1801 58.8703Z" fill="#39CEFD"/>
   </g>
   <mask id="mask2_604_40" style="mask-type:luminance" maskUnits="userSpaceOnUse" x="15" y="19" width="50" height="61">
   <path d="M65 47.1574L48.6059 63.5516L65 79.9496H46.2633L39.2356 72.9219L29.8652 63.5516L46.2633 47.1574H65ZM46.2633 19.0504L15.8098 49.5L25.1801 58.8703L65 19.0504H46.2633Z" fill="white"/>
   </mask>
   <g mask="url(#mask2_604_40)">
   <path d="M39.2356 72.9219L46.2633 79.9496H65L48.6059 63.5555L39.2356 72.9219Z" fill="#03569B"/>
   </g>
   <mask id="mask3_604_40" style="mask-type:luminance" maskUnits="userSpaceOnUse" x="15" y="19" width="50" height="61">
   <path d="M65 47.1574L48.6059 63.5516L65 79.9496H46.2633L39.2356 72.9219L29.8652 63.5516L46.2633 47.1574H65ZM46.2633 19.0504L15.8098 49.5L25.1801 58.8703L65 19.0504H46.2633Z" fill="white"/>
   </mask>
   <g mask="url(#mask3_604_40)">
   <path d="M39.2356 72.9219L53.1304 68.1113L48.6059 63.5555L39.2356 72.9219Z" fill="url(#paint0_linear_604_40)"/>
   </g>
   <mask id="mask4_604_40" style="mask-type:luminance" maskUnits="userSpaceOnUse" x="15" y="19" width="50" height="61">
   <path d="M65 47.1574L48.6059 63.5516L65 79.9496H46.2633L39.2356 72.9219L29.8652 63.5516L46.2633 47.1574H65ZM46.2633 19.0504L15.8098 49.5L25.1801 58.8703L65 19.0504H46.2633Z" fill="white"/>
   </mask>
   <g mask="url(#mask4_604_40)">
   <path d="M39.2332 54.1834L29.8652 63.5514L39.2332 72.9194L48.6012 63.5514L39.2332 54.1834Z" fill="#16B9FD"/>
   </g>
   <path d="M65 47.1574L48.6059 63.5516L65 79.9496H46.2633L39.2356 72.9219L29.8652 63.5516L46.2633 47.1574H65ZM46.2633 19.0504L15.8098 49.5L25.1801 58.8703L65 19.0504H46.2633Z" fill="url(#paint1_radial_604_40)"/>
   <path d="M125 100C152.614 100 175 77.6142 175 50C175 22.3858 152.614 0 125 0C97.3858 0 75 22.3858 75 50C75 77.6142 97.3858 100 125 100Z" fill="#F2F2F2"/>
   <mask id="mask5_604_40" style="mask-type:luminance" maskUnits="userSpaceOnUse" x="86" y="21" width="78" height="59">
   <path d="M163.178 21H86V79.7021H163.178V21Z" fill="white"/>
   </mask>
   <g mask="url(#mask5_604_40)">
   <path d="M158.314 65.3829V80.1518H120.785C109.852 80.1518 100.306 74.2123 95.1982 65.3829C92.9401 61.4799 91.611 57.1094 91.3139 52.6101V48.616C91.4482 46.5651 91.7983 44.534 92.3584 42.5565C95.864 30.1588 107.264 21.0742 120.786 21.0742C134.308 21.0742 145.706 30.1588 149.212 42.5571H133.165C130.531 38.516 125.972 35.8438 120.787 35.8438C115.602 35.8438 111.041 38.5154 108.407 42.5571C107.595 43.7992 106.977 45.1576 106.573 46.5855C106.203 47.8961 106.016 49.2516 106.017 50.6133C106.017 54.8468 107.797 58.663 110.652 61.3545C113.389 63.9459 117.017 65.3879 120.787 65.3829H158.314Z" fill="#FD366E"/>
   <path d="M158.314 46.5855V61.3545H130.92C132.386 59.9762 133.554 58.312 134.351 56.4646C135.148 54.6172 135.558 52.626 135.556 50.614C135.556 49.2173 135.362 47.8664 135 46.5855H158.314Z" fill="#FD366E"/>
   </g>
   <defs>
   <linearGradient id="paint0_linear_604_40" x1="41.9672" y1="74.7334" x2="48.9458" y2="67.7548" gradientUnits="userSpaceOnUse">
   <stop stop-color="#1A237E" stop-opacity="0.4"/>
   <stop offset="1" stop-color="#1A237E" stop-opacity="0"/>
   </linearGradient>
   <radialGradient id="paint1_radial_604_40" cx="0" cy="0" r="1" gradientUnits="userSpaceOnUse" gradientTransform="translate(17.1953 23.2016) scale(74.5099)">
   <stop stop-color="white" stop-opacity="0.1"/>
   <stop offset="1" stop-color="white" stop-opacity="0"/>
   </radialGradient>
   </defs>
   </svg>
   